<?xml version="1.0" encoding="UTF-8" standalone="no"?>
<!-- Generator: Adobe Illustrator 16.2.1, SVG Export Plug-In . SVG Version: 6.00 Build 0)  -->

<svg
   xmlns:dc="http://purl.org/dc/elements/1.1/"
   xmlns:cc="http://creativecommons.org/ns#"
   xmlns:rdf="http://www.w3.org/1999/02/22-rdf-syntax-ns#"
   xmlns:svg="http://www.w3.org/2000/svg"
   xmlns="http://www.w3.org/2000/svg"
   xmlns:sodipodi="http://sodipodi.sourceforge.net/DTD/sodipodi-0.dtd"
   xmlns:inkscape="http://www.inkscape.org/namespaces/inkscape"
   version="1.1"
   id="Layer_1"
   x="0px"
   y="0px"
   width="512px"
   height="512px"
   viewBox="0 0 512 512"
   style="enable-background:new 0 0 512 512;"
   xml:space="preserve"
   inkscape:version="0.48.3.1 r9886"
   sodipodi:docname="icon.svg"><metadata
   id="metadata11"><rdf:RDF><cc:Work
       rdf:about=""><dc:format>image/svg+xml</dc:format><dc:type
         rdf:resource="http://purl.org/dc/dcmitype/StillImage" /><dc:title /></cc:Work></rdf:RDF></metadata><defs
   id="defs9"><filter
     color-interpolation-filters="sRGB"
     inkscape:collect="always"
     x="-0.13315918"
     width="1.2663183"
     y="-0.17460185"
     height="1.3492037"
     id="filter7676"><feGaussianBlur
       inkscape:collect="always"
       stdDeviation="4.2217398"
       id="feGaussianBlur7678" /></filter><filter
     color-interpolation-filters="sRGB"
     inkscape:collect="always"
     id="filter7812"><feGaussianBlur
       inkscape:collect="always"
       stdDeviation="1.5536207"
       id="feGaussianBlur7814" /></filter></defs><sodipodi:namedview
   pagecolor="#ffffff"
   bordercolor="#666666"
   borderopacity="1"
   objecttolerance="10"
   gridtolerance="10"
   guidetolerance="10"
   inkscape:pageopacity="0"
   inkscape:pageshadow="2"
   inkscape:window-width="1366"
   inkscape:window-height="723"
   id="namedview7"
   showgrid="false"
   inkscape:zoom="0.32593203"
   inkscape:cx="638.31681"
   inkscape:cy="108.68094"
   inkscape:window-x="-3"
   inkscape:window-y="24"
   inkscape:window-maximized="1"
   inkscape:current-layer="g3" />
<g
   id="g3"
   transform="matrix(1.1666667,0,0,1.1666667,-42.666668,-42.666682)">
	<path
   d="m 433.25713,256.00001 c 0,-27.31429 16.91429,-48.91429 42.17143,-63.77143 -4.57143,-15.2 -10.62857,-29.94286 -18.05714,-43.65714 -28.45714,7.42857 -51.42857,-3.65715 -70.85714,-23.08572 C 367.19999,106.17144 361.25713,83.085725 368.68571,54.628583 354.97142,47.200012 340.34285,41.14287 325.02856,36.571442 c -14.85714,25.371427 -41.59999,42.171426 -69.02857,42.171426 -27.31428,0 -54.17142,-16.799999 -69.02856,-42.171426 -15.31429,4.571428 -29.94286,10.62857 -43.65715,18.057141 7.42858,28.457142 1.48572,51.428567 -17.82857,70.857137 -19.31428,19.31429 -42.399997,30.51429 -70.742853,23.08572 -7.542857,13.71428 -13.6,28.34285 -18.171428,43.65714 25.371428,14.85714 42.285713,36.45714 42.285713,63.77143 0,27.31428 -16.914285,54.17142 -42.285713,69.02856 4.571428,15.31429 10.628571,29.94286 18.057142,43.65715 28.457142,-7.42858 51.428569,-1.48572 70.742859,17.82857 19.42857,19.31428 25.25714,42.4 17.82857,70.85714 13.82857,7.42857 28.34285,13.48571 43.65714,18.05714 14.85714,-25.37143 41.71428,-42.17143 69.02857,-42.17143 27.31428,0 54.17143,16.8 69.02857,42.17143 15.31428,-4.57143 29.94285,-10.62857 43.65714,-18.05714 -7.42857,-28.45714 -1.48571,-51.42857 17.82857,-70.85714 C 405.71428,367.2 428.79999,356 457.25713,363.42857 464.6857,349.6 470.74285,334.97143 475.31427,319.77143 450.05713,304.91429 433.25713,283.31429 433.25713,256.00001 z"
   id="path5"
   inkscape:connector-curvature="0"
   sodipodi:nodetypes="sccsccscccccscccccscccccs" />
<path
   inkscape:connector-curvature="0"
   style="fill:#666666;fill-rule:evenodd;stroke:none;display:inline"
   d="m 117.36614,279.44718 c 23.52867,32.97581 114.00773,28.8698 148.56305,27.97318 52.94764,3.05788 97.863,-13.46293 133.07139,-53.64441 C 356.55702,234.39819 316.99139,211.92324 261.35486,207.20096 139.9856,191.5624 126.24568,291.94294 117.36614,279.44718 z"
   id="path2265"
   sodipodi:nodetypes="ccccc" /><path
   inkscape:connector-curvature="0"
   style="fill:none;stroke:#000000;stroke-width:0.61375773px;stroke-linecap:butt;stroke-linejoin:miter;stroke-opacity:1;display:inline"
   d="m 124.74874,274.77628 c 0.13862,0 0.27724,0 0,0 z"
   id="path2276" /><path
   inkscape:connector-curvature="0"
   style="opacity:0.79891298;fill:#e6e6e6;fill-rule:evenodd;stroke:none;display:inline"
   d="m 136.39249,274.36043 c 38.0987,-73.15187 197.05028,-53.96216 228.71648,-7.90111 -34.93113,57.81191 -245.90499,34.64499 -228.71648,7.90111 z"
   id="path2280"
   sodipodi:nodetypes="ccc" /><g
   transform="matrix(0.61375775,0,0,0.61375775,41.893431,126.33664)"
   style="display:inline"
   id="g2413"><path
     transform="matrix(1.60987,0,0,1.51329,-128.612,-434.866)"
     d="m 374.00452,417.85684 c 0,37.60685 -33.36816,68.09322 -74.52988,68.09322 -41.16172,0 -74.52988,-30.48637 -74.52988,-68.09322 0,-37.60684 33.36816,-68.09321 74.52988,-68.09321 41.16172,0 74.52988,30.48637 74.52988,68.09321 z"
     sodipodi:ry="68.093216"
     sodipodi:rx="74.529884"
     sodipodi:cy="417.85684"
     sodipodi:cx="299.47464"
     id="path2283"
     style="fill:#000000;fill-rule:evenodd;stroke:#000000;stroke-width:1px;stroke-linecap:butt;stroke-linejoin:miter;stroke-opacity:1"
     sodipodi:type="arc" /><path
     transform="matrix(2.96492,0,0,3.42532,-751.055,-1270.47)"
     d="m 403.1389,428.3588 c 0,13.09691 -13.95396,23.71405 -31.16704,23.71405 -17.21308,0 -31.16704,-10.61714 -31.16704,-23.71405 0,-13.09692 13.95396,-23.71406 31.16704,-23.71406 17.21308,0 31.16704,10.61714 31.16704,23.71406 z"
     sodipodi:ry="23.714054"
     sodipodi:rx="31.167042"
     sodipodi:cy="428.3588"
     sodipodi:cx="371.97186"
     id="path3310"
     style="fill:#504416;fill-opacity:1;stroke:#000000;stroke-opacity:1;filter:url(#filter7676)"
     sodipodi:type="arc" /><path
     transform="matrix(1.19633,0,0,1.20137,-123.327,-300.65)"
     d="m 421.43262,408.70999 c 0,14.5937 -12.13388,26.42423 -27.10178,26.42423 -14.9679,0 -27.10178,-11.83053 -27.10178,-26.42423 0,-14.5937 12.13388,-26.42423 27.10178,-26.42423 14.9679,0 27.10178,11.83053 27.10178,26.42423 z"
     sodipodi:ry="26.424232"
     sodipodi:rx="27.101776"
     sodipodi:cy="408.70999"
     sodipodi:cx="394.33084"
     id="path4281"
     style="fill:#000000;stroke:none"
     sodipodi:type="arc" /><path
     inkscape:connector-curvature="0"
     sodipodi:nodetypes="ccccccc"
     id="path4285"
     d="m 391.78608,157.16074 c 14.5298,6.14801 17.6322,16.10515 21.68142,25.74668 14.16125,76.72787 -40.66829,88.50818 -69.78707,90.11341 -46.17242,-6.75197 -91.60944,-40.14929 -59.62391,-109.76219 2.41349,-6.50456 19.38477,-13.01739 27.77932,-12.87335 -33.36613,56.36026 1.13511,81.01202 30.4895,85.3706 42.37093,-0.31437 66.01392,-24.09948 49.46074,-78.59515 z"
     style="opacity:0.44021702;fill:#d5fff6;fill-opacity:1;fill-rule:evenodd;stroke:none" /><path
     inkscape:connector-curvature="0"
     sodipodi:nodetypes="cccc"
     id="path4287"
     d="m 298.96249,157.83828 c -14.83279,41.79875 -4.21843,61.96741 16.93861,73.1748 40.62695,18.42659 81.21996,1.95631 84.01551,-37.26495 -15.99631,66.34314 -125.5747,49.46527 -100.95412,-35.90985 z"
     style="fill:#d5fff6;fill-opacity:1;fill-rule:evenodd;stroke:none;filter:url(#filter7812)" /><g
     transform="matrix(1.0471,0,0,0.813144,-227.066,-21.5052)"
     id="g2246"
     style="fill:#ffffff;stroke:none;display:inline"><path
       inkscape:connector-curvature="0"
       style="fill:#ffffff;fill-rule:evenodd;stroke:none"
       d="m 508.02224,261.67934 -9.28406,-0.33382 -13.05571,2.99765 13.21396,-0.34439 9.12581,-2.31944 z"
       id="path9108" /><g
       style="fill:#ffffff;stroke:none"
       id="g9157"><path
         inkscape:connector-curvature="0"
         sodipodi:nodetypes="cccccc"
         style="fill:#ffffff;fill-rule:evenodd;stroke:none"
         d="m 566.73258,306.44537 -1.17417,9.27905 2.93543,13.25575 0.20843,-4.70621 0.37866,-8.54954 -2.34835,-9.27905 z"
         id="path9090" /><path
         inkscape:connector-curvature="0"
         style="fill:#ffffff;fill-rule:evenodd;stroke:none"
         d="m 532.12249,306.86912 -4.35457,8.2272 -1.90345,13.37973 5.20034,-12.13762 1.05768,-9.46931 z"
         id="path9092" /><path
         inkscape:connector-curvature="0"
         id="path9094"
         d="m 544.29582,310.84621 -1.17438,9.23418 2.93593,13.19168 0.58718,-13.19168 -2.34873,-9.23418 z"
         style="fill:#ffffff;fill-rule:evenodd;stroke:none" /><path
         inkscape:connector-curvature="0"
         id="path9084"
         d="m 516.9515,297.18907 -7.06869,6.05664 -6.67823,11.7491 9.28977,-9.38431 4.45715,-8.42143 z"
         style="fill:#ffffff;fill-rule:evenodd;stroke:none" /><path
         inkscape:connector-curvature="0"
         id="path9088"
         d="m 574.2663,299.66507 0.96871,8.7831 6.35216,10.46961 -2.55817,-12.05621 -4.7627,-7.1965 z"
         style="fill:#ffffff;fill-rule:evenodd;stroke:none" /><path
         inkscape:connector-curvature="0"
         style="fill:#ffffff;fill-rule:evenodd;stroke:none"
         d="m 580.72863,291.94055 4.6589,8.05878 10.32651,8.71798 -7.52325,-10.852 -7.46216,-5.92476 z"
         id="path9096" /><path
         inkscape:connector-curvature="0"
         style="fill:#ffffff;fill-rule:evenodd;stroke:none"
         d="m 509.59397,286.63183 -6.97824,6.13266 -7.43231,11.14442 9.36934,-9.32431 5.04121,-7.95277 z"
         id="path9098" /><path
         inkscape:connector-curvature="0"
         id="path9100"
         d="m 505.78712,277.56953 -8.50614,3.85194 -8.98697,10.30526 11.40361,-6.63792 6.0895,-7.51928 z"
         style="fill:#ffffff;fill-rule:evenodd;stroke:none" /><path
         inkscape:connector-curvature="0"
         style="fill:#ffffff;fill-rule:evenodd;stroke:none"
         d="m 506.39223,251.65549 -8.10142,-4.54668 -12.9797,-3.31128 11.90584,5.74267 9.17528,2.11529 z"
         id="path9102" /><path
         inkscape:connector-curvature="0"
         id="path9104"
         d="m 511.41741,238.4071 -6.0919,-7.03832 -11.78233,-6.61943 9.43063,9.24275 8.4436,4.415 z"
         style="fill:#ffffff;fill-rule:evenodd;stroke:none" /><path
         inkscape:connector-curvature="0"
         style="fill:#ffffff;fill-rule:evenodd;stroke:none"
         d="m 503.02107,273.51427 -9.33073,-0.12437 -12.85038,2.52146 13.21632,-0.4603 8.96479,-1.93679 z"
         id="path9110" /></g></g></g><path
   style="fill:#000000;fill-opacity:1;stroke:none"
   d="m 78.173462,163.52043 0,187.98979 348.550998,0 0,-187.98979 -348.550998,0 z m 157.040808,42.06122 c 2.55862,-2.6e-4 5.08878,0.0556 7.62245,0.15307 55.31245,1.23824 101.19908,21.37132 145.56121,44.5102 -50.41894,78.1376 -250.47551,53.86319 -264.48977,24.94897 32.09919,-57.48601 72.92682,-69.60831 111.30611,-69.61224 z"
   id="rect3134"
   inkscape:connector-curvature="0" /></g>
</svg>